<svg id="visual" viewBox="0 0 900 600" width="900" height="600" xmlns="http://www.w3.org/2000/svg" xmlns:xlink="http://www.w3.org/1999/xlink" version="1.1"><rect x="0" y="0" width="900" height="600" fill="#931C1C"></rect><path d="M581 600L614 514L675 429L611 343L621 257L669 171L656 86L663 0L900 0L900 86L900 171L900 257L900 343L900 429L900 514L900 600Z" fill="#f5730a"></path><path d="M706 600L703 514L664 429L717 343L616 257L699 171L661 86L604 0L900 0L900 86L900 171L900 257L900 343L900 429L900 514L900 600Z" fill="#da5b09"></path><path d="M733 600L661 514L670 429L664 343L730 257L734 171L746 86L677 0L900 0L900 86L900 171L900 257L900 343L900 429L900 514L900 600Z" fill="#be4407"></path><path d="M779 600L814 514L809 429L734 343L776 257L788 171L768 86L764 0L900 0L900 86L900 171L900 257L900 343L900 429L900 514L900 600Z" fill="#a32d04"></path><path d="M806 600L797 514L818 429L831 343L791 257L833 171L860 86L826 0L900 0L900 86L900 171L900 257L900 343L900 429L900 514L900 600Z" fill="#871400"></path></svg>