<svg id="visual" viewBox="0 0 900 600" width="900" height="600" xmlns="http://www.w3.org/2000/svg" xmlns:xlink="http://www.w3.org/1999/xlink" version="1.1"><path d="M0 526L11.5 525.3C23 524.7 46 523.3 69 517.2C92 511 115 500 138.2 496.2C161.3 492.3 184.7 495.7 207.8 503C231 510.3 254 521.7 277 526.3C300 531 323 529 346 523.5C369 518 392 509 415.2 504.5C438.3 500 461.7 500 484.8 501.8C508 503.7 531 507.3 554 508C577 508.7 600 506.3 623 508.2C646 510 669 516 692.2 516.8C715.3 517.7 738.7 513.3 761.8 508.8C785 504.3 808 499.7 831 504C854 508.3 877 521.7 888.5 528.3L900 535L900 601L888.5 601C877 601 854 601 831 601C808 601 785 601 761.8 601C738.7 601 715.3 601 692.2 601C669 601 646 601 623 601C600 601 577 601 554 601C531 601 508 601 484.8 601C461.7 601 438.3 601 415.2 601C392 601 369 601 346 601C323 601 300 601 277 601C254 601 231 601 207.8 601C184.7 601 161.3 601 138.2 601C115 601 92 601 69 601C46 601 23 601 11.5 601L0 601Z" fill="#9599e2"></path><path d="M0 512L11.5 516.7C23 521.3 46 530.7 69 532.8C92 535 115 530 138.2 524C161.3 518 184.7 511 207.8 508.2C231 505.3 254 506.7 277 513.7C300 520.7 323 533.3 346 534.3C369 535.3 392 524.7 415.2 519.2C438.3 513.7 461.7 513.3 484.8 512C508 510.7 531 508.3 554 506.5C577 504.7 600 503.3 623 507.8C646 512.3 669 522.7 692.2 527.5C715.3 532.3 738.7 531.7 761.8 531.3C785 531 808 531 831 529C854 527 877 523 888.5 521L900 519L900 601L888.5 601C877 601 854 601 831 601C808 601 785 601 761.8 601C738.7 601 715.3 601 692.2 601C669 601 646 601 623 601C600 601 577 601 554 601C531 601 508 601 484.8 601C461.7 601 438.3 601 415.2 601C392 601 369 601 346 601C323 601 300 601 277 601C254 601 231 601 207.8 601C184.7 601 161.3 601 138.2 601C115 601 92 601 69 601C46 601 23 601 11.5 601L0 601Z" fill="#88adea"></path><path d="M0 531L11.5 530.7C23 530.3 46 529.7 69 533C92 536.3 115 543.7 138.2 544C161.3 544.3 184.7 537.7 207.8 536.8C231 536 254 541 277 545.2C300 549.3 323 552.7 346 552.8C369 553 392 550 415.2 545.8C438.3 541.7 461.7 536.3 484.8 530.5C508 524.7 531 518.3 554 516C577 513.7 600 515.3 623 517.3C646 519.3 669 521.7 692.2 524.7C715.3 527.7 738.7 531.3 761.8 530.8C785 530.3 808 525.7 831 522.7C854 519.7 877 518.3 888.5 517.7L900 517L900 601L888.5 601C877 601 854 601 831 601C808 601 785 601 761.8 601C738.7 601 715.3 601 692.2 601C669 601 646 601 623 601C600 601 577 601 554 601C531 601 508 601 484.8 601C461.7 601 438.3 601 415.2 601C392 601 369 601 346 601C323 601 300 601 277 601C254 601 231 601 207.8 601C184.7 601 161.3 601 138.2 601C115 601 92 601 69 601C46 601 23 601 11.5 601L0 601Z" fill="#87bfec"></path><path d="M0 538L11.5 537C23 536 46 534 69 535.5C92 537 115 542 138.2 545.8C161.3 549.7 184.7 552.3 207.8 552.5C231 552.7 254 550.3 277 548.7C300 547 323 546 346 546.3C369 546.7 392 548.3 415.2 546.3C438.3 544.3 461.7 538.7 484.8 538.2C508 537.7 531 542.3 554 545.2C577 548 600 549 623 546.5C646 544 669 538 692.2 535.5C715.3 533 738.7 534 761.8 535.3C785 536.7 808 538.3 831 539.7C854 541 877 542 888.5 542.5L900 543L900 601L888.5 601C877 601 854 601 831 601C808 601 785 601 761.8 601C738.7 601 715.3 601 692.2 601C669 601 646 601 623 601C600 601 577 601 554 601C531 601 508 601 484.8 601C461.7 601 438.3 601 415.2 601C392 601 369 601 346 601C323 601 300 601 277 601C254 601 231 601 207.8 601C184.7 601 161.3 601 138.2 601C115 601 92 601 69 601C46 601 23 601 11.5 601L0 601Z" fill="#8bc6ec"></path><path d="M0 574L11.5 574.2C23 574.3 46 574.7 69 573.5C92 572.3 115 569.7 138.2 567.3C161.3 565 184.7 563 207.8 563.7C231 564.3 254 567.7 277 570.3C300 573 323 575 346 570.3C369 565.7 392 554.3 415.2 549.8C438.3 545.3 461.7 547.7 484.8 547.2C508 546.7 531 543.3 554 545.2C577 547 600 554 623 560C646 566 669 571 692.2 569.3C715.3 567.7 738.7 559.3 761.8 559.7C785 560 808 569 831 568.3C854 567.7 877 557.3 888.5 552.2L900 547L900 601L888.5 601C877 601 854 601 831 601C808 601 785 601 761.8 601C738.7 601 715.3 601 692.2 601C669 601 646 601 623 601C600 601 577 601 554 601C531 601 508 601 484.8 601C461.7 601 438.3 601 415.2 601C392 601 369 601 346 601C323 601 300 601 277 601C254 601 231 601 207.8 601C184.7 601 161.3 601 138.2 601C115 601 92 601 69 601C46 601 23 601 11.5 601L0 601Z" fill="#87bfec"></path><path d="M0 586L11.5 580.7C23 575.3 46 564.7 69 562.7C92 560.7 115 567.3 138.2 568.8C161.3 570.3 184.7 566.7 207.8 568.3C231 570 254 577 277 579.5C300 582 323 580 346 577.3C369 574.7 392 571.3 415.2 573C438.3 574.7 461.7 581.3 484.8 583.8C508 586.3 531 584.7 554 580.5C577 576.3 600 569.7 623 566.7C646 563.7 669 564.3 692.2 565.3C715.3 566.3 738.7 567.7 761.8 571.3C785 575 808 581 831 584.2C854 587.3 877 587.7 888.5 587.8L900 588L900 601L888.5 601C877 601 854 601 831 601C808 601 785 601 761.8 601C738.7 601 715.3 601 692.2 601C669 601 646 601 623 601C600 601 577 601 554 601C531 601 508 601 484.8 601C461.7 601 438.3 601 415.2 601C392 601 369 601 346 601C323 601 300 601 277 601C254 601 231 601 207.8 601C184.7 601 161.3 601 138.2 601C115 601 92 601 69 601C46 601 23 601 11.5 601L0 601Z" fill="#88adea"></path><path d="M0 590L11.5 588.5C23 587 46 584 69 581.3C92 578.7 115 576.3 138.2 578.7C161.3 581 184.7 588 207.8 587.7C231 587.3 254 579.7 277 579.3C300 579 323 586 346 587.5C369 589 392 585 415.2 585.2C438.3 585.3 461.7 589.7 484.8 588.2C508 586.7 531 579.3 554 577.7C577 576 600 580 623 583.5C646 587 669 590 692.2 592C715.3 594 738.7 595 761.8 592C785 589 808 582 831 578.7C854 575.3 877 575.7 888.5 575.8L900 576L900 601L888.5 601C877 601 854 601 831 601C808 601 785 601 761.8 601C738.7 601 715.3 601 692.2 601C669 601 646 601 623 601C600 601 577 601 554 601C531 601 508 601 484.8 601C461.7 601 438.3 601 415.2 601C392 601 369 601 346 601C323 601 300 601 277 601C254 601 231 601 207.8 601C184.7 601 161.3 601 138.2 601C115 601 92 601 69 601C46 601 23 601 11.5 601L0 601Z" fill="#9599e2"></path></svg>