<svg id="visual" viewBox="0 0 390 844" width="390" height="844" xmlns="http://www.w3.org/2000/svg" xmlns:xlink="http://www.w3.org/1999/xlink" version="1.1"><g stroke-width="1" stroke-linejoin="bevel"><path d="M152.3 440L125.7 414L111 416Z" fill="#c6c9cc" stroke="#c6c9cc"></path><path d="M111 416L132 481.2L152.3 440Z" fill="#ffffff" stroke="#ffffff"></path><path d="M111 416L82.3 442.2L132 481.2Z" fill="#00101c" stroke="#00101c"></path><path d="M82.3 442.2L85.7 469.2L132 481.2Z" fill="#e2e4e5" stroke="#e2e4e5"></path><path d="M85.7 469.2L93 502.4L132 481.2Z" fill="#777d84" stroke="#777d84"></path><path d="M82.3 442.2L53.7 472.4L85.7 469.2Z" fill="#19242f" stroke="#19242f"></path><path d="M85.7 469.2L53.7 472.4L93 502.4Z" fill="#2f3943" stroke="#2f3943"></path><path d="M152.3 440L162.3 379.8L125.7 414Z" fill="#91969b" stroke="#91969b"></path><path d="M125.7 414L72.7 368.6L111 416Z" fill="#777d84" stroke="#777d84"></path><path d="M195.3 508.4L198.7 492.4L132 481.2Z" fill="#ffffff" stroke="#ffffff"></path><path d="M132 481.2L198.7 492.4L152.3 440Z" fill="#00101c" stroke="#00101c"></path><path d="M152.3 440L183.3 369.6L162.3 379.8Z" fill="#ffffff" stroke="#ffffff"></path><path d="M99 334.4L72.7 368.6L125.7 414Z" fill="#464e58" stroke="#464e58"></path><path d="M111 416L72.7 368.6L82.3 442.2Z" fill="#464e58" stroke="#464e58"></path><path d="M82.3 442.2L5.3 457L53.7 472.4Z" fill="#464e58" stroke="#464e58"></path><path d="M44.3 543.4L93.7 531.6L93 502.4Z" fill="#19242f" stroke="#19242f"></path><path d="M93 502.4L93.7 531.6L132 481.2Z" fill="#91969b" stroke="#91969b"></path><path d="M218.7 465.2L183.3 369.6L152.3 440Z" fill="#c6c9cc" stroke="#c6c9cc"></path><path d="M162.3 379.8L143 339.8L125.7 414Z" fill="#777d84" stroke="#777d84"></path><path d="M151 548.6L195.3 508.4L132 481.2Z" fill="#5e656d" stroke="#5e656d"></path><path d="M210.3 492.2L218.7 465.2L198.7 492.4Z" fill="#c6c9cc" stroke="#c6c9cc"></path><path d="M198.7 492.4L218.7 465.2L152.3 440Z" fill="#ffffff" stroke="#ffffff"></path><path d="M195.3 508.4L210.3 492.2L198.7 492.4Z" fill="#e2e4e5" stroke="#e2e4e5"></path><path d="M183.3 369.6L143 339.8L162.3 379.8Z" fill="#91969b" stroke="#91969b"></path><path d="M93.7 531.6L151 548.6L132 481.2Z" fill="#c6c9cc" stroke="#c6c9cc"></path><path d="M99 334.4L82.7 341.8L72.7 368.6Z" fill="#00101c" stroke="#00101c"></path><path d="M82.7 341.8L75.3 343.6L72.7 368.6Z" fill="#e2e4e5" stroke="#e2e4e5"></path><path d="M5.3 387.8L5.3 457L82.3 442.2Z" fill="#00101c" stroke="#00101c"></path><path d="M81.3 570.8L109 554.8L93.7 531.6Z" fill="#2f3943" stroke="#2f3943"></path><path d="M93.7 531.6L109 554.8L151 548.6Z" fill="#abafb3" stroke="#abafb3"></path><path d="M143 339.8L99 334.4L125.7 414Z" fill="#abafb3" stroke="#abafb3"></path><path d="M82.7 341.8L74.7 300.4L75.3 343.6Z" fill="#c6c9cc" stroke="#c6c9cc"></path><path d="M5.3 387.8L82.3 442.2L72.7 368.6Z" fill="#00101c" stroke="#00101c"></path><path d="M53.7 472.4L44.3 543.4L93 502.4Z" fill="#5e656d" stroke="#5e656d"></path><path d="M248.7 391L201.7 349.6L183.3 369.6Z" fill="#ffffff" stroke="#ffffff"></path><path d="M183.3 369.6L201.7 349.6L143 339.8Z" fill="#5e656d" stroke="#5e656d"></path><path d="M0 384L0 465.2L5.3 457Z" fill="#e2e4e5" stroke="#e2e4e5"></path><path d="M5.3 457L0 480.4L53.7 472.4Z" fill="#abafb3" stroke="#abafb3"></path><path d="M0 480.4L44.3 543.4L53.7 472.4Z" fill="#e2e4e5" stroke="#e2e4e5"></path><path d="M0 465.2L0 480.4L5.3 457Z" fill="#ffffff" stroke="#ffffff"></path><path d="M272 436.2L249 429L218.7 465.2Z" fill="#777d84" stroke="#777d84"></path><path d="M218.7 465.2L249 429L183.3 369.6Z" fill="#19242f" stroke="#19242f"></path><path d="M0 341.8L5.3 387.8L72.7 368.6Z" fill="#ffffff" stroke="#ffffff"></path><path d="M148 597L166.3 566.6L151 548.6Z" fill="#00101c" stroke="#00101c"></path><path d="M151 548.6L166.3 566.6L195.3 508.4Z" fill="#464e58" stroke="#464e58"></path><path d="M195.3 508.4L223 543.4L210.3 492.2Z" fill="#5e656d" stroke="#5e656d"></path><path d="M267.3 498.4L272 436.2L218.7 465.2Z" fill="#2f3943" stroke="#2f3943"></path><path d="M148 597L151 548.6L109 554.8Z" fill="#19242f" stroke="#19242f"></path><path d="M77.7 571.8L81.3 570.8L93.7 531.6Z" fill="#00101c" stroke="#00101c"></path><path d="M44.3 543.4L77.7 571.8L93.7 531.6Z" fill="#ffffff" stroke="#ffffff"></path><path d="M148 597L187.7 581.6L166.3 566.6Z" fill="#abafb3" stroke="#abafb3"></path><path d="M0 341.8L0 384L5.3 387.8Z" fill="#19242f" stroke="#19242f"></path><path d="M5.3 387.8L0 384L5.3 457Z" fill="#464e58" stroke="#464e58"></path><path d="M249 429L248.7 391L183.3 369.6Z" fill="#abafb3" stroke="#abafb3"></path><path d="M143 339.8L98 306.6L99 334.4Z" fill="#c6c9cc" stroke="#c6c9cc"></path><path d="M99 334.4L98 306.6L82.7 341.8Z" fill="#00101c" stroke="#00101c"></path><path d="M75.3 343.6L0 341.8L72.7 368.6Z" fill="#2f3943" stroke="#2f3943"></path><path d="M137 286.2L98 306.6L143 339.8Z" fill="#c6c9cc" stroke="#c6c9cc"></path><path d="M227 318.6L199.7 326.4L201.7 349.6Z" fill="#00101c" stroke="#00101c"></path><path d="M201.7 349.6L199.7 326.4L143 339.8Z" fill="#777d84" stroke="#777d84"></path><path d="M195.7 570.8L223 543.4L195.3 508.4Z" fill="#2f3943" stroke="#2f3943"></path><path d="M166.3 566.6L195.7 570.8L195.3 508.4Z" fill="#00101c" stroke="#00101c"></path><path d="M187.7 581.6L195.7 570.8L166.3 566.6Z" fill="#c6c9cc" stroke="#c6c9cc"></path><path d="M267.3 498.4L218.7 465.2L210.3 492.2Z" fill="#c6c9cc" stroke="#c6c9cc"></path><path d="M249 429L272 436.2L248.7 391Z" fill="#e2e4e5" stroke="#e2e4e5"></path><path d="M66.3 237.2L74.7 300.4L97 231Z" fill="#91969b" stroke="#91969b"></path><path d="M98 306.6L74.7 300.4L82.7 341.8Z" fill="#19242f" stroke="#19242f"></path><path d="M148 597L109 554.8L81.3 570.8Z" fill="#ffffff" stroke="#ffffff"></path><path d="M195.7 570.8L237 581.6L223 543.4Z" fill="#c6c9cc" stroke="#c6c9cc"></path><path d="M292.3 525.6L267.3 498.4L274.3 556.8Z" fill="#abafb3" stroke="#abafb3"></path><path d="M223 543.4L267.3 498.4L210.3 492.2Z" fill="#2f3943" stroke="#2f3943"></path><path d="M75.7 635L148 597L81.3 570.8Z" fill="#00101c" stroke="#00101c"></path><path d="M269.3 367.8L253.7 356.8L248.7 391Z" fill="#abafb3" stroke="#abafb3"></path><path d="M248.7 391L253.7 356.8L201.7 349.6Z" fill="#abafb3" stroke="#abafb3"></path><path d="M170.3 268.2L137 286.2L199.7 326.4Z" fill="#c6c9cc" stroke="#c6c9cc"></path><path d="M199.7 326.4L137 286.2L143 339.8Z" fill="#00101c" stroke="#00101c"></path><path d="M0 322.6L0 341.8L24.3 300.4Z" fill="#abafb3" stroke="#abafb3"></path><path d="M253.7 356.8L227 318.6L201.7 349.6Z" fill="#777d84" stroke="#777d84"></path><path d="M299 368.8L269.3 367.8L248.7 391Z" fill="#abafb3" stroke="#abafb3"></path><path d="M303.3 313.6L239 283.4L227 318.6Z" fill="#777d84" stroke="#777d84"></path><path d="M267.3 498.4L288.3 456L272 436.2Z" fill="#2f3943" stroke="#2f3943"></path><path d="M272 436.2L299 368.8L248.7 391Z" fill="#2f3943" stroke="#2f3943"></path><path d="M44.3 543.4L27.3 587.6L77.7 571.8Z" fill="#ffffff" stroke="#ffffff"></path><path d="M77.7 571.8L75.7 635L81.3 570.8Z" fill="#19242f" stroke="#19242f"></path><path d="M0 567.6L27.3 587.6L44.3 543.4Z" fill="#91969b" stroke="#91969b"></path><path d="M24.3 300.4L0 341.8L75.3 343.6Z" fill="#abafb3" stroke="#abafb3"></path><path d="M0 480.4L0 567.6L44.3 543.4Z" fill="#5e656d" stroke="#5e656d"></path><path d="M48.7 270.2L24.3 300.4L74.7 300.4Z" fill="#c6c9cc" stroke="#c6c9cc"></path><path d="M74.7 300.4L24.3 300.4L75.3 343.6Z" fill="#2f3943" stroke="#2f3943"></path><path d="M200.3 609L204.7 599L187.7 581.6Z" fill="#19242f" stroke="#19242f"></path><path d="M187.7 581.6L204.7 599L195.7 570.8Z" fill="#c6c9cc" stroke="#c6c9cc"></path><path d="M204.7 599L237 581.6L195.7 570.8Z" fill="#e2e4e5" stroke="#e2e4e5"></path><path d="M313.7 452.2L307.7 441L288.3 456Z" fill="#2f3943" stroke="#2f3943"></path><path d="M194.3 276.4L170.3 268.2L199.7 326.4Z" fill="#91969b" stroke="#91969b"></path><path d="M66.3 237.2L48.7 270.2L74.7 300.4Z" fill="#00101c" stroke="#00101c"></path><path d="M198.3 624.8L200.3 609L148 597Z" fill="#91969b" stroke="#91969b"></path><path d="M148 597L200.3 609L187.7 581.6Z" fill="#19242f" stroke="#19242f"></path><path d="M204.7 599L200.3 609L237 581.6Z" fill="#00101c" stroke="#00101c"></path><path d="M227 318.6L194.3 276.4L199.7 326.4Z" fill="#464e58" stroke="#464e58"></path><path d="M239 283.4L194.3 276.4L227 318.6Z" fill="#e2e4e5" stroke="#e2e4e5"></path><path d="M303.3 487.2L288.3 456L267.3 498.4Z" fill="#464e58" stroke="#464e58"></path><path d="M288.3 456L307.7 441L272 436.2Z" fill="#19242f" stroke="#19242f"></path><path d="M292.3 525.6L303.3 487.2L267.3 498.4Z" fill="#5e656d" stroke="#5e656d"></path><path d="M274.3 556.8L267.3 498.4L223 543.4Z" fill="#e2e4e5" stroke="#e2e4e5"></path><path d="M74.7 300.4L98 306.6L97 231Z" fill="#ffffff" stroke="#ffffff"></path><path d="M24.3 300.4L0 276.4L0 322.6Z" fill="#e2e4e5" stroke="#e2e4e5"></path><path d="M275 610L274.3 556.8L237 581.6Z" fill="#777d84" stroke="#777d84"></path><path d="M237 581.6L274.3 556.8L223 543.4Z" fill="#19242f" stroke="#19242f"></path><path d="M303.3 487.2L313.7 452.2L288.3 456Z" fill="#5e656d" stroke="#5e656d"></path><path d="M307.7 441L299 368.8L272 436.2Z" fill="#5e656d" stroke="#5e656d"></path><path d="M390 473.4L313.7 452.2L390 483.2Z" fill="#19242f" stroke="#19242f"></path><path d="M340.7 345.8L299 368.8L390 389Z" fill="#2f3943" stroke="#2f3943"></path><path d="M269.3 367.8L303.3 313.6L253.7 356.8Z" fill="#464e58" stroke="#464e58"></path><path d="M195.3 669.2L198.3 624.8L148 597Z" fill="#e2e4e5" stroke="#e2e4e5"></path><path d="M200.3 609L275 610L237 581.6Z" fill="#91969b" stroke="#91969b"></path><path d="M32.3 650L75.7 635L27.3 587.6Z" fill="#c6c9cc" stroke="#c6c9cc"></path><path d="M27.3 587.6L75.7 635L77.7 571.8Z" fill="#2f3943" stroke="#2f3943"></path><path d="M303.3 313.6L227 318.6L253.7 356.8Z" fill="#e2e4e5" stroke="#e2e4e5"></path><path d="M197.7 256.2L175.3 249L170.3 268.2Z" fill="#19242f" stroke="#19242f"></path><path d="M0 567.6L0 603L27.3 587.6Z" fill="#c6c9cc" stroke="#c6c9cc"></path><path d="M197.7 256.2L170.3 268.2L194.3 276.4Z" fill="#c6c9cc" stroke="#c6c9cc"></path><path d="M170.3 268.2L175.3 249L137 286.2Z" fill="#c6c9cc" stroke="#c6c9cc"></path><path d="M239 283.4L197.7 256.2L194.3 276.4Z" fill="#abafb3" stroke="#abafb3"></path><path d="M0 269.2L0 276.4L48.7 270.2Z" fill="#464e58" stroke="#464e58"></path><path d="M48.7 270.2L0 276.4L24.3 300.4Z" fill="#5e656d" stroke="#5e656d"></path><path d="M0 244L0 269.2L48.7 270.2Z" fill="#abafb3" stroke="#abafb3"></path><path d="M97 231L98 306.6L137 286.2Z" fill="#2f3943" stroke="#2f3943"></path><path d="M175.3 249L97 231L137 286.2Z" fill="#00101c" stroke="#00101c"></path><path d="M0 603L0 621.8L27.3 587.6Z" fill="#2f3943" stroke="#2f3943"></path><path d="M299 368.8L303.3 313.6L269.3 367.8Z" fill="#464e58" stroke="#464e58"></path><path d="M239 283.4L223 244L197.7 256.2Z" fill="#abafb3" stroke="#abafb3"></path><path d="M340.7 345.8L303.3 313.6L299 368.8Z" fill="#c6c9cc" stroke="#c6c9cc"></path><path d="M264 254.2L223 244L239 283.4Z" fill="#464e58" stroke="#464e58"></path><path d="M197.7 256.2L223 244L175.3 249Z" fill="#00101c" stroke="#00101c"></path><path d="M107 177.8L75.7 215L97 231Z" fill="#ffffff" stroke="#ffffff"></path><path d="M0 621.8L32.3 650L27.3 587.6Z" fill="#00101c" stroke="#00101c"></path><path d="M130 685.4L195.3 669.2L148 597Z" fill="#5e656d" stroke="#5e656d"></path><path d="M198.3 624.8L275 610L200.3 609Z" fill="#464e58" stroke="#464e58"></path><path d="M274.3 556.8L328.7 543.4L292.3 525.6Z" fill="#e2e4e5" stroke="#e2e4e5"></path><path d="M292.3 525.6L328.7 543.4L303.3 487.2Z" fill="#464e58" stroke="#464e58"></path><path d="M32.3 650L69.7 666.2L75.7 635Z" fill="#00101c" stroke="#00101c"></path><path d="M288 636.2L282 616.8L275 610Z" fill="#abafb3" stroke="#abafb3"></path><path d="M282 616.8L328.7 543.4L274.3 556.8Z" fill="#91969b" stroke="#91969b"></path><path d="M390 389L299 368.8L307.7 441Z" fill="#5e656d" stroke="#5e656d"></path><path d="M107 177.8L97 231L175.3 249Z" fill="#c6c9cc" stroke="#c6c9cc"></path><path d="M97 231L75.7 215L66.3 237.2Z" fill="#abafb3" stroke="#abafb3"></path><path d="M66.3 237.2L0 244L48.7 270.2Z" fill="#19242f" stroke="#19242f"></path><path d="M20.3 207.8L0 244L66.3 237.2Z" fill="#19242f" stroke="#19242f"></path><path d="M288 636.2L275 610L198.3 624.8Z" fill="#abafb3" stroke="#abafb3"></path><path d="M275 610L282 616.8L274.3 556.8Z" fill="#e2e4e5" stroke="#e2e4e5"></path><path d="M130 685.4L148 597L75.7 635Z" fill="#c6c9cc" stroke="#c6c9cc"></path><path d="M306.3 271.2L264 254.2L239 283.4Z" fill="#19242f" stroke="#19242f"></path><path d="M390 389L307.7 441L313.7 452.2Z" fill="#00101c" stroke="#00101c"></path><path d="M303.3 313.6L306.3 271.2L239 283.4Z" fill="#00101c" stroke="#00101c"></path><path d="M69.7 666.2L130 685.4L75.7 635Z" fill="#19242f" stroke="#19242f"></path><path d="M282 616.8L343.7 551.6L328.7 543.4Z" fill="#91969b" stroke="#91969b"></path><path d="M390 483.2L313.7 452.2L303.3 487.2Z" fill="#19242f" stroke="#19242f"></path><path d="M360.7 309.6L341.3 330.4L390 318.6Z" fill="#c6c9cc" stroke="#c6c9cc"></path><path d="M340.7 345.8L341.3 330.4L303.3 313.6Z" fill="#c6c9cc" stroke="#c6c9cc"></path><path d="M390 581.8L350.7 550.8L390 597Z" fill="#464e58" stroke="#464e58"></path><path d="M343.7 551.6L350.7 550.8L328.7 543.4Z" fill="#00101c" stroke="#00101c"></path><path d="M328.7 292.4L306.3 271.2L303.3 313.6Z" fill="#464e58" stroke="#464e58"></path><path d="M89.7 721.4L139 696.2L130 685.4Z" fill="#91969b" stroke="#91969b"></path><path d="M130 685.4L139 696.2L195.3 669.2Z" fill="#2f3943" stroke="#2f3943"></path><path d="M195.3 669.2L288 636.2L198.3 624.8Z" fill="#2f3943" stroke="#2f3943"></path><path d="M282 616.8L332.7 654L343.7 551.6Z" fill="#c6c9cc" stroke="#c6c9cc"></path><path d="M303.3 664.2L288 636.2L270.3 695.4Z" fill="#19242f" stroke="#19242f"></path><path d="M0 680.2L31.3 682.2L32.3 650Z" fill="#e2e4e5" stroke="#e2e4e5"></path><path d="M32.3 650L31.3 682.2L69.7 666.2Z" fill="#abafb3" stroke="#abafb3"></path><path d="M69.7 666.2L89.7 721.4L130 685.4Z" fill="#00101c" stroke="#00101c"></path><path d="M341.3 330.4L328.7 292.4L303.3 313.6Z" fill="#91969b" stroke="#91969b"></path><path d="M75.7 215L20.3 207.8L66.3 237.2Z" fill="#e2e4e5" stroke="#e2e4e5"></path><path d="M115.7 766.8L184.3 702.4L139 696.2Z" fill="#00101c" stroke="#00101c"></path><path d="M139 696.2L184.3 702.4L195.3 669.2Z" fill="#5e656d" stroke="#5e656d"></path><path d="M0 621.8L0 680.2L32.3 650Z" fill="#c6c9cc" stroke="#c6c9cc"></path><path d="M54.3 730.4L89.7 721.4L69.7 666.2Z" fill="#777d84" stroke="#777d84"></path><path d="M151.3 147.6L107 177.8L175.3 249Z" fill="#c6c9cc" stroke="#c6c9cc"></path><path d="M75.7 215L69.3 174L20.3 207.8Z" fill="#e2e4e5" stroke="#e2e4e5"></path><path d="M235.7 200L175.3 249L223 244Z" fill="#00101c" stroke="#00101c"></path><path d="M235.7 200L223 244L264 254.2Z" fill="#464e58" stroke="#464e58"></path><path d="M317.7 205L264 254.2L306.3 271.2Z" fill="#ffffff" stroke="#ffffff"></path><path d="M317.7 205L235.7 200L264 254.2Z" fill="#464e58" stroke="#464e58"></path><path d="M390 483.2L303.3 487.2L328.7 543.4Z" fill="#00101c" stroke="#00101c"></path><path d="M341.3 330.4L360.7 309.6L328.7 292.4Z" fill="#464e58" stroke="#464e58"></path><path d="M350.7 550.8L390 483.2L328.7 543.4Z" fill="#c6c9cc" stroke="#c6c9cc"></path><path d="M390 473.4L390 389L313.7 452.2Z" fill="#ffffff" stroke="#ffffff"></path><path d="M390 318.6L341.3 330.4L340.7 345.8Z" fill="#777d84" stroke="#777d84"></path><path d="M328.7 292.4L336.7 245.2L306.3 271.2Z" fill="#2f3943" stroke="#2f3943"></path><path d="M107 177.8L69.3 174L75.7 215Z" fill="#00101c" stroke="#00101c"></path><path d="M390 389L390 367.8L340.7 345.8Z" fill="#ffffff" stroke="#ffffff"></path><path d="M54.3 730.4L69.7 666.2L31.3 682.2Z" fill="#464e58" stroke="#464e58"></path><path d="M151.3 147.6L99.7 162.6L107 177.8Z" fill="#19242f" stroke="#19242f"></path><path d="M107 177.8L99.7 162.6L69.3 174Z" fill="#464e58" stroke="#464e58"></path><path d="M270.3 695.4L288 636.2L195.3 669.2Z" fill="#00101c" stroke="#00101c"></path><path d="M288 636.2L318.3 655L282 616.8Z" fill="#777d84" stroke="#777d84"></path><path d="M350.7 550.8L390 543.6L390 483.2Z" fill="#2f3943" stroke="#2f3943"></path><path d="M390 581.8L390 543.6L350.7 550.8Z" fill="#91969b" stroke="#91969b"></path><path d="M303.3 664.2L318.3 655L288 636.2Z" fill="#91969b" stroke="#91969b"></path><path d="M242.7 714.2L270.3 695.4L195.3 669.2Z" fill="#91969b" stroke="#91969b"></path><path d="M303.3 664.2L332.7 654L318.3 655Z" fill="#e2e4e5" stroke="#e2e4e5"></path><path d="M242.7 714.2L195.3 669.2L184.3 702.4Z" fill="#e2e4e5" stroke="#e2e4e5"></path><path d="M390 279.4L328.7 292.4L360.7 309.6Z" fill="#00101c" stroke="#00101c"></path><path d="M390 270.2L336.7 245.2L328.7 292.4Z" fill="#00101c" stroke="#00101c"></path><path d="M0 739.4L54.3 730.4L31.3 682.2Z" fill="#19242f" stroke="#19242f"></path><path d="M212.7 747.4L242.7 714.2L184.3 702.4Z" fill="#777d84" stroke="#777d84"></path><path d="M390 367.8L390 318.6L340.7 345.8Z" fill="#91969b" stroke="#91969b"></path><path d="M262 719.4L242.7 714.2L238 743.6Z" fill="#5e656d" stroke="#5e656d"></path><path d="M246 161.8L230.7 167.8L235.7 200Z" fill="#19242f" stroke="#19242f"></path><path d="M235.7 200L151.3 147.6L175.3 249Z" fill="#777d84" stroke="#777d84"></path><path d="M321.3 762.6L303.3 664.2L270.3 695.4Z" fill="#ffffff" stroke="#ffffff"></path><path d="M385.7 695.2L332.7 654L303.3 664.2Z" fill="#91969b" stroke="#91969b"></path><path d="M318.3 655L332.7 654L282 616.8Z" fill="#2f3943" stroke="#2f3943"></path><path d="M230.7 167.8L151.3 147.6L235.7 200Z" fill="#c6c9cc" stroke="#c6c9cc"></path><path d="M390 597L350.7 550.8L343.7 551.6Z" fill="#91969b" stroke="#91969b"></path><path d="M317.7 205L246 161.8L235.7 200Z" fill="#777d84" stroke="#777d84"></path><path d="M230.7 167.8L205.3 141.8L151.3 147.6Z" fill="#00101c" stroke="#00101c"></path><path d="M332.7 654L390 597L343.7 551.6Z" fill="#19242f" stroke="#19242f"></path><path d="M242.7 714.2L262 719.4L270.3 695.4Z" fill="#91969b" stroke="#91969b"></path><path d="M106 758.6L139 696.2L89.7 721.4Z" fill="#2f3943" stroke="#2f3943"></path><path d="M332.3 187L317.7 205L336.7 245.2Z" fill="#00101c" stroke="#00101c"></path><path d="M336.7 245.2L317.7 205L306.3 271.2Z" fill="#c6c9cc" stroke="#c6c9cc"></path><path d="M151.3 147.6L75.7 134.8L99.7 162.6Z" fill="#ffffff" stroke="#ffffff"></path><path d="M99.7 162.6L75.7 134.8L69.3 174Z" fill="#91969b" stroke="#91969b"></path><path d="M69.3 174L44.3 139.6L20.3 207.8Z" fill="#e2e4e5" stroke="#e2e4e5"></path><path d="M167 107.6L75.7 134.8L151.3 147.6Z" fill="#91969b" stroke="#91969b"></path><path d="M246 161.8L205.3 141.8L230.7 167.8Z" fill="#ffffff" stroke="#ffffff"></path><path d="M390 318.6L390 279.4L360.7 309.6Z" fill="#464e58" stroke="#464e58"></path><path d="M75.7 134.8L44.3 139.6L69.3 174Z" fill="#ffffff" stroke="#ffffff"></path><path d="M20.3 207.8L0 136.8L0 244Z" fill="#abafb3" stroke="#abafb3"></path><path d="M64.7 763.6L106 758.6L89.7 721.4Z" fill="#91969b" stroke="#91969b"></path><path d="M154.3 789.6L212.7 747.4L184.3 702.4Z" fill="#c6c9cc" stroke="#c6c9cc"></path><path d="M390 279.4L390 270.2L328.7 292.4Z" fill="#5e656d" stroke="#5e656d"></path><path d="M0 680.2L0 739.4L31.3 682.2Z" fill="#ffffff" stroke="#ffffff"></path><path d="M54.3 730.4L64.7 763.6L89.7 721.4Z" fill="#2f3943" stroke="#2f3943"></path><path d="M212.7 747.4L238 743.6L242.7 714.2Z" fill="#abafb3" stroke="#abafb3"></path><path d="M385.7 695.2L390 654.2L332.7 654Z" fill="#5e656d" stroke="#5e656d"></path><path d="M62.3 770.8L115.7 766.8L106 758.6Z" fill="#19242f" stroke="#19242f"></path><path d="M106 758.6L115.7 766.8L139 696.2Z" fill="#91969b" stroke="#91969b"></path><path d="M212.7 747.4L239.7 768.8L238 743.6Z" fill="#19242f" stroke="#19242f"></path><path d="M0 739.4L64.7 763.6L54.3 730.4Z" fill="#777d84" stroke="#777d84"></path><path d="M0 110.6L0 136.8L44.3 139.6Z" fill="#ffffff" stroke="#ffffff"></path><path d="M44.3 139.6L0 136.8L20.3 207.8Z" fill="#464e58" stroke="#464e58"></path><path d="M390 207L332.3 187L336.7 245.2Z" fill="#777d84" stroke="#777d84"></path><path d="M317.7 205L313.7 156.8L246 161.8Z" fill="#19242f" stroke="#19242f"></path><path d="M235 110.6L167 107.6L205.3 141.8Z" fill="#777d84" stroke="#777d84"></path><path d="M0 739.4L62.3 770.8L64.7 763.6Z" fill="#00101c" stroke="#00101c"></path><path d="M64.7 763.6L62.3 770.8L106 758.6Z" fill="#ffffff" stroke="#ffffff"></path><path d="M235 110.6L205.3 141.8L246 161.8Z" fill="#777d84" stroke="#777d84"></path><path d="M205.3 141.8L167 107.6L151.3 147.6Z" fill="#ffffff" stroke="#ffffff"></path><path d="M58.7 67.4L0 110.6L44.3 139.6Z" fill="#ffffff" stroke="#ffffff"></path><path d="M321.3 762.6L270.3 695.4L262 719.4Z" fill="#c6c9cc" stroke="#c6c9cc"></path><path d="M332.7 654L390 654.2L390 597Z" fill="#777d84" stroke="#777d84"></path><path d="M340.3 158.6L313.7 156.8L332.3 187Z" fill="#464e58" stroke="#464e58"></path><path d="M332.3 187L313.7 156.8L317.7 205Z" fill="#abafb3" stroke="#abafb3"></path><path d="M236.7 797.6L239.7 768.8L212.7 747.4Z" fill="#777d84" stroke="#777d84"></path><path d="M238 743.6L285 768.8L262 719.4Z" fill="#abafb3" stroke="#abafb3"></path><path d="M154.3 789.6L184.3 702.4L115.7 766.8Z" fill="#464e58" stroke="#464e58"></path><path d="M102 831.8L154.3 789.6L115.7 766.8Z" fill="#2f3943" stroke="#2f3943"></path><path d="M235.7 109.6L235 110.6L254.7 109.4Z" fill="#464e58" stroke="#464e58"></path><path d="M254.7 109.4L235 110.6L246 161.8Z" fill="#91969b" stroke="#91969b"></path><path d="M235 110.6L235.7 109.6L167 107.6Z" fill="#91969b" stroke="#91969b"></path><path d="M58.7 67.4L44.3 139.6L75.7 134.8Z" fill="#2f3943" stroke="#2f3943"></path><path d="M0 779.6L57.3 793.6L62.3 770.8Z" fill="#91969b" stroke="#91969b"></path><path d="M62.3 770.8L57.3 793.6L115.7 766.8Z" fill="#00101c" stroke="#00101c"></path><path d="M0 739.4L0 779.6L62.3 770.8Z" fill="#19242f" stroke="#19242f"></path><path d="M390 270.2L390 207L336.7 245.2Z" fill="#ffffff" stroke="#ffffff"></path><path d="M345.7 155.6L340.3 158.6L332.3 187Z" fill="#abafb3" stroke="#abafb3"></path><path d="M306.3 129.8L254.7 109.4L246 161.8Z" fill="#00101c" stroke="#00101c"></path><path d="M235.7 109.6L160.3 86.4L167 107.6Z" fill="#464e58" stroke="#464e58"></path><path d="M167 107.6L160.3 86.4L75.7 134.8Z" fill="#ffffff" stroke="#ffffff"></path><path d="M306.3 129.8L246 161.8L313.7 156.8Z" fill="#e2e4e5" stroke="#e2e4e5"></path><path d="M220 46.2L163 55.2L160.3 86.4Z" fill="#91969b" stroke="#91969b"></path><path d="M157.3 844L169.3 803.8L154.3 789.6Z" fill="#464e58" stroke="#464e58"></path><path d="M154.3 789.6L169.3 803.8L212.7 747.4Z" fill="#91969b" stroke="#91969b"></path><path d="M239.7 768.8L285 768.8L238 743.6Z" fill="#2f3943" stroke="#2f3943"></path><path d="M236.7 797.6L285 768.8L239.7 768.8Z" fill="#e2e4e5" stroke="#e2e4e5"></path><path d="M385.7 719.4L385.7 695.2L303.3 664.2Z" fill="#2f3943" stroke="#2f3943"></path><path d="M340.3 158.6L306.3 129.8L313.7 156.8Z" fill="#ffffff" stroke="#ffffff"></path><path d="M390 166.8L345.7 155.6L332.3 187Z" fill="#abafb3" stroke="#abafb3"></path><path d="M340.3 158.6L345.7 155.6L306.3 129.8Z" fill="#5e656d" stroke="#5e656d"></path><path d="M169.3 803.8L236.7 797.6L212.7 747.4Z" fill="#19242f" stroke="#19242f"></path><path d="M361.7 765.8L321.3 762.6L339.3 808.8Z" fill="#00101c" stroke="#00101c"></path><path d="M285 768.8L321.3 762.6L262 719.4Z" fill="#464e58" stroke="#464e58"></path><path d="M321.3 762.6L385.7 719.4L303.3 664.2Z" fill="#abafb3" stroke="#abafb3"></path><path d="M385.7 695.2L390 756.4L390 654.2Z" fill="#19242f" stroke="#19242f"></path><path d="M138 50.4L58.7 67.4L75.7 134.8Z" fill="#e2e4e5" stroke="#e2e4e5"></path><path d="M390 207L390 166.8L332.3 187Z" fill="#777d84" stroke="#777d84"></path><path d="M339.7 110.4L288 92.4L306.3 129.8Z" fill="#c6c9cc" stroke="#c6c9cc"></path><path d="M11.3 844L102 831.8L57.3 793.6Z" fill="#ffffff" stroke="#ffffff"></path><path d="M57.3 793.6L102 831.8L115.7 766.8Z" fill="#19242f" stroke="#19242f"></path><path d="M169.3 803.8L215.7 844L236.7 797.6Z" fill="#ffffff" stroke="#ffffff"></path><path d="M254.7 109.4L220 46.2L235.7 109.6Z" fill="#777d84" stroke="#777d84"></path><path d="M160.3 86.4L138 50.4L75.7 134.8Z" fill="#19242f" stroke="#19242f"></path><path d="M306.3 129.8L288 92.4L254.7 109.4Z" fill="#19242f" stroke="#19242f"></path><path d="M339.7 110.4L306.3 129.8L345.7 155.6Z" fill="#5e656d" stroke="#5e656d"></path><path d="M220 46.2L160.3 86.4L235.7 109.6Z" fill="#5e656d" stroke="#5e656d"></path><path d="M163 55.2L138 50.4L160.3 86.4Z" fill="#ffffff" stroke="#ffffff"></path><path d="M390 122.4L339.7 110.4L345.7 155.6Z" fill="#777d84" stroke="#777d84"></path><path d="M390 166.8L390 147.6L345.7 155.6Z" fill="#abafb3" stroke="#abafb3"></path><path d="M11.3 844L123 844L102 831.8Z" fill="#e2e4e5" stroke="#e2e4e5"></path><path d="M102 831.8L125.7 844L154.3 789.6Z" fill="#19242f" stroke="#19242f"></path><path d="M123 844L125.7 844L102 831.8Z" fill="#ffffff" stroke="#ffffff"></path><path d="M366.7 771.6L361.7 765.8L339.3 808.8Z" fill="#ffffff" stroke="#ffffff"></path><path d="M321.3 762.6L285 768.8L339.3 808.8Z" fill="#abafb3" stroke="#abafb3"></path><path d="M321.3 762.6L361.7 765.8L385.7 719.4Z" fill="#abafb3" stroke="#abafb3"></path><path d="M125.7 844L157.3 844L154.3 789.6Z" fill="#2f3943" stroke="#2f3943"></path><path d="M0 779.6L0 826.8L57.3 793.6Z" fill="#91969b" stroke="#91969b"></path><path d="M58.7 67.4L0 61.4L0 110.6Z" fill="#19242f" stroke="#19242f"></path><path d="M0 23.2L0 61.4L6.3 16.2Z" fill="#19242f" stroke="#19242f"></path><path d="M138 50.4L77.3 44.4L58.7 67.4Z" fill="#e2e4e5" stroke="#e2e4e5"></path><path d="M339.3 808.8L285 768.8L290 844Z" fill="#19242f" stroke="#19242f"></path><path d="M361.7 765.8L390 756.4L385.7 719.4Z" fill="#2f3943" stroke="#2f3943"></path><path d="M288 92.4L220 46.2L254.7 109.4Z" fill="#91969b" stroke="#91969b"></path><path d="M161.3 0L115.7 29.2L138 50.4Z" fill="#464e58" stroke="#464e58"></path><path d="M138 50.4L115.7 29.2L77.3 44.4Z" fill="#2f3943" stroke="#2f3943"></path><path d="M243.7 0L220 46.2L244 0Z" fill="#91969b" stroke="#91969b"></path><path d="M157.3 844L215.7 844L169.3 803.8Z" fill="#464e58" stroke="#464e58"></path><path d="M366.7 771.6L390 756.4L361.7 765.8Z" fill="#ffffff" stroke="#ffffff"></path><path d="M385.7 719.4L390 756.4L385.7 695.2Z" fill="#464e58" stroke="#464e58"></path><path d="M161.3 0L138 50.4L163 55.2Z" fill="#777d84" stroke="#777d84"></path><path d="M6.3 16.2L0 61.4L58.7 67.4Z" fill="#777d84" stroke="#777d84"></path><path d="M0 826.8L11.3 844L57.3 793.6Z" fill="#e2e4e5" stroke="#e2e4e5"></path><path d="M0 826.8L0 844L11.3 844Z" fill="#c6c9cc" stroke="#c6c9cc"></path><path d="M390 147.6L390 122.4L345.7 155.6Z" fill="#777d84" stroke="#777d84"></path><path d="M339.7 110.4L340.3 77.4L288 92.4Z" fill="#abafb3" stroke="#abafb3"></path><path d="M189.3 25.2L193.7 30.2L243.7 0Z" fill="#ffffff" stroke="#ffffff"></path><path d="M220 46.2L193.7 30.2L163 55.2Z" fill="#464e58" stroke="#464e58"></path><path d="M390 788.6L390 768.8L366.7 771.6Z" fill="#abafb3" stroke="#abafb3"></path><path d="M366.7 771.6L390 768.8L390 756.4Z" fill="#91969b" stroke="#91969b"></path><path d="M243.7 0L193.7 30.2L220 46.2Z" fill="#19242f" stroke="#19242f"></path><path d="M193.7 30.2L189.3 25.2L163 55.2Z" fill="#e2e4e5" stroke="#e2e4e5"></path><path d="M290 844L285 768.8L236.7 797.6Z" fill="#91969b" stroke="#91969b"></path><path d="M390 73.2L340.3 77.4L339.7 110.4Z" fill="#19242f" stroke="#19242f"></path><path d="M215.7 844L290 844L236.7 797.6Z" fill="#464e58" stroke="#464e58"></path><path d="M362.7 844L390 788.6L339.3 808.8Z" fill="#2f3943" stroke="#2f3943"></path><path d="M339.3 808.8L390 788.6L366.7 771.6Z" fill="#5e656d" stroke="#5e656d"></path><path d="M6.3 16.2L58.7 67.4L28.3 0Z" fill="#464e58" stroke="#464e58"></path><path d="M58.7 67.4L77.3 44.4L28.3 0Z" fill="#abafb3" stroke="#abafb3"></path><path d="M92 0L77.3 44.4L115.7 29.2Z" fill="#ffffff" stroke="#ffffff"></path><path d="M161.3 0L92 0L115.7 29.2Z" fill="#19242f" stroke="#19242f"></path><path d="M243.7 0L161.3 0L189.3 25.2Z" fill="#abafb3" stroke="#abafb3"></path><path d="M189.3 25.2L161.3 0L163 55.2Z" fill="#e2e4e5" stroke="#e2e4e5"></path><path d="M92 0L60.7 0L77.3 44.4Z" fill="#464e58" stroke="#464e58"></path><path d="M290 844L336.3 844L339.3 808.8Z" fill="#19242f" stroke="#19242f"></path><path d="M60.7 0L28.3 0L77.3 44.4Z" fill="#2f3943" stroke="#2f3943"></path><path d="M390 122.4L390 73.2L339.7 110.4Z" fill="#c6c9cc" stroke="#c6c9cc"></path><path d="M244 0L220 46.2L298.3 0Z" fill="#5e656d" stroke="#5e656d"></path><path d="M220 46.2L288 92.4L298.3 0Z" fill="#91969b" stroke="#91969b"></path><path d="M333.7 18.2L288 92.4L340.3 77.4Z" fill="#00101c" stroke="#00101c"></path><path d="M28.3 0L0 0L6.3 16.2Z" fill="#00101c" stroke="#00101c"></path><path d="M6.3 16.2L0 0L0 23.2Z" fill="#00101c" stroke="#00101c"></path><path d="M336.3 844L362.7 844L339.3 808.8Z" fill="#2f3943" stroke="#2f3943"></path><path d="M390 73.2L333.7 18.2L340.3 77.4Z" fill="#5e656d" stroke="#5e656d"></path><path d="M333.7 18.2L298.3 0L288 92.4Z" fill="#e2e4e5" stroke="#e2e4e5"></path><path d="M333.7 18.2L316.3 4.2L298.3 0Z" fill="#464e58" stroke="#464e58"></path><path d="M362.7 844L390 844L390 788.6Z" fill="#777d84" stroke="#777d84"></path><path d="M390 0L340.7 0L333.7 18.2Z" fill="#e2e4e5" stroke="#e2e4e5"></path><path d="M333.7 18.2L340.7 0L316.3 4.2Z" fill="#5e656d" stroke="#5e656d"></path><path d="M316.3 4.2L340.7 0L298.3 0Z" fill="#00101c" stroke="#00101c"></path><path d="M390 73.2L390 0L333.7 18.2Z" fill="#c6c9cc" stroke="#c6c9cc"></path></g></svg>