<svg id="visual" viewBox="0 0 900 600" width="900" height="600" xmlns="http://www.w3.org/2000/svg" xmlns:xlink="http://www.w3.org/1999/xlink" version="1.1"><path d="M872 600L833 580C794 560 716 520 696.5 480C677 440 716 400 752 360C788 320 821 280 843.5 240C866 200 878 160 851 120C824 80 758 40 725 20L692 0L900 0L900 20C900 40 900 80 900 120C900 160 900 200 900 240C900 280 900 320 900 360C900 400 900 440 900 480C900 520 900 560 900 580L900 600Z" fill="#8bc6ec"></path><path d="M323 600L297.5 580C272 560 221 520 269 480C317 440 464 400 522.5 360C581 320 551 280 594.5 240C638 200 755 160 723.5 120C692 80 512 40 422 20L332 0L693 0L726 20C759 40 825 80 852 120C879 160 867 200 844.5 240C822 280 789 320 753 360C717 400 678 440 697.5 480C717 520 795 560 834 580L873 600Z" fill="#89abea"></path><path d="M296 600L261.5 580C227 560 158 520 194 480C230 440 371 400 407 360C443 320 374 280 399.5 240C425 200 545 160 522.5 120C500 80 335 40 252.5 20L170 0L333 0L423 20C513 40 693 80 724.5 120C756 160 639 200 595.5 240C552 280 582 320 523.5 360C465 400 318 440 270 480C222 520 273 560 298.5 580L324 600Z" fill="#9599e2"></path><path d="M143 600L131 580C119 560 95 520 138.5 480C182 440 293 400 303.5 360C314 320 224 280 236 240C248 200 362 160 365 120C368 80 260 40 206 20L152 0L171 0L253.5 20C336 40 501 80 523.5 120C546 160 426 200 400.5 240C375 280 444 320 408 360C372 400 231 440 195 480C159 520 228 560 262.5 580L297 600Z" fill="#89abea"></path><path d="M0 600L0 580C0 560 0 520 0 480C0 440 0 400 0 360C0 320 0 280 0 240C0 200 0 160 0 120C0 80 0 40 0 20L0 0L153 0L207 20C261 40 369 80 366 120C363 160 249 200 237 240C225 280 315 320 304.5 360C294 400 183 440 139.5 480C96 520 120 560 132 580L144 600Z" fill="#8bc6ec"></path></svg>